<svg width="1920" height="469" viewBox="0 0 1920 469" fill="none" xmlns="http://www.w3.org/2000/svg">
<path d="M1508 332.5L1506.5 272.5L1432 293.5L1436 324.5L1417.5 358.5L1456 356.5L1508 332.5Z" fill="#2D0B45"/>
<path d="M1508 332.5L1506.5 272.5L1527 296L1544 339.5L1508 332.5Z" fill="#080215"/>
<path d="M1432 293.5V263L1420.5 301L1358.5 285.5V284.5L1239 254.5L1170.5 157L1168.5 155.5L1146 158L1163.5 211.5L1183 256.5L1297.5 273L1379.5 308L1281 326L1188 268.5L1215.5 331H1216L1327.5 393L1343.5 383L1432 293.5Z" fill="#030109"/>
<path d="M1436 324.5L1432 293.5L1343.5 383L1366 397.5L1425 402L1493 362L1508 332.5L1456 356.5L1417.5 358.5L1436 324.5Z" fill="#160933"/>
<path d="M1017 218.5L962 237L1000.5 229L1027.5 305.5L1033 295L1020 254L1072.5 279L1112.5 316.5L1118 302.5L1132 311L1145 305.5L1107 218.5H1017Z" fill="#0C0526"/>
<path d="M973 267L934 290.5L1003 312L973 267Z" fill="#0B0421"/>
<path d="M962 237L1017 218.5L807 251.5L934 290.5L973 267L1000.5 229L962 237Z" fill="#19072D"/>
<path d="M1239 254.5L1231.5 244L1209 204H1209.5L1343 209.5L1418 271.5L1358.5 284.5L1239 254.5Z" fill="#1C0F42"/>
<path d="M1226.5 369L1217.5 344.5L1337.5 432L1226.5 369Z" fill="#100321"/>
<path d="M691.5 383.5L715.5 384.5L545.5 427L572.5 405L691.5 383.5Z" fill="#210431"/>
<path d="M580 344L587.5 324.5L634 272.5L641.5 268L651 271.5L700.5 256L714.5 248L719 247.5L760 261.5L738 260L757.5 268L735 336.5L717.5 355L708.5 356.5H707L713 346.5L709.5 344L648.5 365.5L602.5 370.5L580 344Z" fill="#1D0838"/>
<path d="M757 261.5L759.5 261L881.5 303.5L864 304L782 271L762 270L726 373.5L717.5 355L735 336.5L757.5 268L756.5 267.5L771 267L757 261.5Z" fill="#150530"/>
<path d="M603 370.5L541 376.5L587.5 324.5L580.5 344L603 370.5Z" fill="#150427"/>
<path d="M944 180.5L1171 155.5L841 171L944 180.5Z" fill="#221652"/>
<path d="M1171 155.5L1156.5 147L997.5 152L841 171L1171 155.5Z" fill="#2F1160"/>
<path d="M1033.39 144.6L997.5 152L1157 147L1154.51 144L1033.39 144.6Z" fill="#00000A"/>
<path d="M1134.5 138H1143.5L1147.5 115.5L1173 136L1198 145.5L1197 144L1153.5 84.5L1147 89V101L1132.5 66L1128 72L1123 125.5L1134.5 138Z" fill="#381E4F"/>
<path d="M1046.5 145H1036L1089 121.5L1118 120L1088.5 133L1046.5 145Z" fill="#50205B"/>
<path d="M1032.5 145L1006.5 145.5L1130.5 44H1131.5L1116.5 87.5L1032.5 145Z" fill="#1A0733"/>
<path d="M986.5 42.5L969.5 62.5L976.5 145.5H1006.5L1130.5 44L1017 127.5H988L1137.5 26.5L1150.5 10L1012.5 104L988 106L1024.5 50.5L1069.5 23.5L986.5 42.5Z" fill="#330E59"/>
<path d="M933.5 112.5L937 53L1156 0.5L1150.5 10L1012.5 104L988 106L1024.5 50.5L1069.5 23.5L986.5 42.5L969.5 63L969 55.5L949 62.5L933.5 112.5Z" fill="#21134A"/>
<path d="M933 115.5L927.5 111L925 142L920.5 145.5H933L937 117L933 115.5Z" fill="#210F33"/>
<path d="M912.5 126L918 133L928 65.5L930.5 56.5L927.5 111L933 115.5L937 117L940.5 127.5L950 132.5L965.5 56.5L949 62.5L933.5 112.5L937 53V46L934 44L929.5 17L916.5 24L912.5 60.8359V126Z" fill="#381E4E"/>
<path d="M877.5 115.5L870 102L878.5 76.5L880.5 71L881 70.5L885 58H888L902 8.5L908 7.5L908.5 16.5L902 73.5L890 68.5L881.5 115.5H877.5Z" fill="#42275B"/>
<path d="M862.5 142.5L851.5 144L890.5 145.5L897 97.5L900 95.5L909.5 112.5L912 145.5H920.5L925 142L927.5 111L930.5 56.5L928 65.5L918 133L912.5 126V65L908.5 16.5L902 73.5L890 68.5L881.5 115.5H877.5L870 102L866 100L862.5 142.5Z" fill="#130722"/>
<path d="M862.5 142.5L866 100L858 102.5L844.5 134L851.5 144L862.5 142.5Z" fill="#341A4A"/>
<path d="M870 102L881 70.5L842.5 107.5V120.5L838 124.5L844.5 134L858 102.5L866 100L870 102Z" fill="#00000B"/>
<path d="M890.5 145.5H791L881 70.5L842.5 107.5V120.5L838 124.5L851.5 144L890.5 145.5Z" fill="#3B1541"/>
<path d="M681.5 239.5L736 187H742L791 145.5H998.5L810.5 165.5L742 202L749.792 215.5H786.96L781 218H753.5L681.5 239.5Z" fill="#1C0931"/>
<path d="M749.762 215.5L742 202L810 165.5L855.5 182.5L992 203L1054.5 212.5H1024.5L783 241L716 248L781 239.5L772.5 233L845.5 190.5L787 215.5H749.762Z" fill="#2D105C"/>
<path d="M482.5 228L0 265V400L445 367.5L600 272.5L529.5 279.5L736 187L482.5 228Z" fill="#2A0B4F"/>
<path d="M328 280.5L397 237.5L0 265V310.5L328 280.5Z" fill="#1C0F41"/>
<path d="M0 468.5V400L445.5 367L588.5 278.5L597.5 273L529.5 279.5L736 187L681.5 239.5L753.5 218H781L845.5 190.5L772.5 233L781 239.5L663 255L634 272.5L459 468.5H0Z" fill="#0B031E"/>
<path d="M897 97.5L890.5 145.5H912L909.5 112.5L900 95.5L897 97.5Z" fill="#1E0D30"/>
<path d="M940.5 127.5L937 117L933 145.5H949.408L950 132.5L940.5 127.5Z" fill="#12071F"/>
<path d="M969 55L976.5 145.5H949.173L950 132.5L965.5 56L969 55Z" fill="#1F0E2E"/>
<path d="M1127 42L1137.5 26.5L988 127.5H1017L1127 42Z" fill="#22144E"/>
<path d="M1150.5 10L1156 0.5L1173 65.5L1135 37.5L1193.5 87.5L1213.5 94.5L1196.5 95L1227 119.5L1276 136L1217.5 122L1197 144L1153.5 84.5L1147 89V101.5L1132.5 66L1128 72L1123.5 126.5L1118.5 120L1089 121.5L1036 145H1032.5L1116.5 87.5L1131.5 44H1130.5L1017 127.5L1127 42L1137.5 26.5L1150.5 10Z" fill="#00000B"/>
<path d="M1126.5 144.5L1046.5 145L1088.5 133L1118 120H1118.5L1134.5 138L1126.5 144.5Z" fill="#1E0D30"/>
<path d="M1143.5 138H1134.5L1126.5 144.5L1198 145.5L1173 136L1147.5 115.5L1143.5 138Z" fill="#120621"/>
<path d="M1173 65.5L1135 37.5L1193.5 87.5L1212.5 94.5L1196.5 95L1227 119.5L1276 136L1320 171.5L1432 262.5V293.5L1506.5 272.5L1527 296H1537.5L1595 365.5L1661.5 469H1871.5L1700.5 427.5L1663 398L1772.5 400.5L1595 308.5H1620.5L1596.5 301L1508.5 241L1480 237.5L1320 168L1294 146L1173 65.5Z" fill="#25184E"/>
<path d="M1033 145L995.5 145.5L810 165.5L855.5 182.5L1054.5 212.5H1024.5L719 247.5L986 339.5L1131 350.5L1141 357.5L1216 331L1031.5 320.5L807 251.5L1017 218.5H1107L1018.5 198.5L875.5 179.5L841 171L997.5 152L1033 145Z" fill="#64438F"/>
<path d="M944 180.5L841 171L875.5 179.5L943 188.5L1018.5 198.5L1107 218.5L1124 243.5L1130.5 245L1132 239L1107.5 164.5V162L1097 163.5L1087 164.5L944 180.5Z" fill="#0D072E"/>
<path d="M520.818 468.5H459L541 376.5L648 365.5L709.5 344L713 346.5L707 356.5L717.5 355L726 373.5L613.5 384.5L576.5 402L545.5 427L772 397.5L838.5 418.5L887.5 368.5L959.5 344.5L961 331L986 339.5L892 391L900 397.5L1052.5 390.5L1128 351L1131 350.5L1141 357.5L962 434.5H786H548L520.818 468.5Z" fill="#0C011C"/>
<path d="M651 271.5L641.5 268L663 255L714.5 248L700.5 256L651 271.5Z" fill="#5D3C85"/>
<path d="M757 261L738 260L757.5 268L771 267L757 261Z" fill="#5F3B89"/>
<path d="M810 304L863 303.5L782.5 271L762 270L786.5 290.5L810 304Z" fill="#58377E"/>
<path d="M786.5 290.5L762 270L738 338L726 373.5L613.5 384.5L699 384L771.5 373L791.5 361.5L810 304L786.5 290.5Z" fill="#1C0735"/>
<path d="M613.5 384.5L693.5 384L572 405.5L577 401.5L613.5 384.5Z" fill="#160627"/>
<path d="M771.5 373L791.5 361L820 376.5H876.5L821 382.5L794 384L715.5 384.5L693 384L771.5 373Z" fill="#0A0218"/>
<path d="M520.5 468.5L548.286 434.081L1186.06 431L1241 469L520.5 468.5Z" fill="#110425"/>
<path d="M863 303.5L810 304L791.5 361L820 376.5H880L887.5 368.5L857.5 343L864 304.5L863 303.5Z" fill="#130429"/>
<path d="M881.5 303.5H863L857.5 343.5L887.5 368.5L959.5 344.5L961 331L881.5 303.5Z" fill="#1E083A"/>
<path d="M715.5 384.5L545.5 427L772 397.5L838.5 418.5L880 376.5H876.5L794 384L715.5 384.5Z" fill="#120325"/>
<path d="M1131 350.5L986 339.5L892 391L900 397.5L1052.5 390.5L1131 350.5Z" fill="#19062D"/>
<path d="M1162 431.5L1216 331L1399 432.5L1337.5 432L1217.5 344.5L1162 431.5Z" fill="#18052B"/>
<path d="M1164.5 427L1216 331L1141 357.5L966.5 432.5L1162 431.5L1164.5 427Z" fill="#270F46"/>
<path d="M1217.5 344.5L1162 431.5H1196L1226.5 369L1217.5 344.5Z" fill="#37195D"/>
<path d="M1341.5 432L1226.5 368.5L1195.19 432H1341.5Z" fill="#19062E"/>
<path d="M1241 469L1186.5 431.5L1620.5 433L1585 391L1492.5 362L1508 332.5L1544.5 339.5L1578 365L1537.5 296L1595 365.5L1661.5 469H1241Z" fill="#080218"/>
<path d="M1155.01 144L1154.18 143.981L1154.55 144.724L1156.05 147.724L1156.12 147.856L1156.25 147.931L1170.65 156.376L1231.59 244.285L1232.43 243.744L1208.4 203.537L1343.31 208.993L1418.88 271.718L1358.4 284.01L1358.38 284.985L1419.88 300.485L1420.34 300.601L1420.48 300.145L1431.98 262.145L1432.08 261.823L1431.81 261.612L1276.31 135.612L1275.65 136.354L1283.84 144.552L1273.98 145.001L1273.81 145.961L1296.22 155.425L1345.32 202.119L1198.18 145.034L1198.1 145.002L1198.01 145L1155.01 144Z" fill="#0E072C" stroke="#0E072C"/>
<path d="M1197 144L1217.5 122L1274 145.5H1198L1197 144Z" fill="#1B0B38"/>
<path d="M1276 136L1217.5 122L1274 145.5L1285 145L1276 136Z" fill="#0B041C"/>
<path d="M1273.8 145.5H1200.5L1343.5 201L1296 156L1273.8 145.5Z" fill="#21154E"/>
<path d="M1000.5 229L973 267L1002.5 311.5L1025 318.5L1000.5 229Z" fill="#07021B"/>
<path d="M1107 162L1096 171L1107.5 164.5L1128.5 229.5L1145 278L1152.5 277.5L1147.5 237.5L1163.5 211.5L1146 158L1107 162Z" fill="#060218"/>
<path d="M1215.5 331L1163.5 211.5L1147.5 237.5L1152.5 277.5L1145 278L1132 239L1130.5 245L1124 243.5L1107 218.5L1145 305.5L1132 311L1118 302.5L1112.5 316.5L1072.5 279L1020 254L1033 295L1027.5 305.5L1000.5 229L1025 318.5L1031.5 320.5L1215.5 331Z" fill="#08011E"/>
<path d="M1297.5 273L1183 256.5L1188 268.5L1281 326L1379.5 308L1297.5 273Z" fill="#0C0420"/>
<path d="M1544 339.5L1527 296H1537.5L1578 365L1544 339.5Z" fill="#1D0736"/>
<path d="M1366 397.5L1343.5 383L1327.5 393L1398.5 432.5L1620.5 433L1585 391L1493 362L1425 402L1366 397.5Z" fill="#070215"/>
<path d="M1818 284H1920V305.5L1774.5 328L1812 330.5L1920 321V324.5L1728 363L1748 368.5L1920 368V469H1870L1700.5 428L1662 397.5L1772 400.5L1614 318.5L1712 319L1729.5 306L1833 308.5L1827 302L1603.5 263H1615L1831.5 297L1871 303L1818 284Z" fill="#170A35"/>
<path d="M1818 284L1508.5 241L1596.5 301L1620.5 308.5H1595L1614.31 318.5L1712 319L1729.5 306L1833 308.5L1827 302L1603.5 263H1614.5L1742 284L1806.5 293.5L1871 303L1818 284Z" fill="#2A0B4F"/>
<path d="M1812 330.5L1920 321V314L1812 330.5Z" fill="#0C0420"/>
<path d="M1920 305.5V314L1812 330.5L1774.5 328L1920 305.5Z" fill="#260944"/>
<path d="M1920 347.816V368L1748 368.5L1920 347.816Z" fill="#0A031E"/>
<path d="M1920 324.5V348L1748 368.5L1727.5 363L1920 324.5Z" fill="#2A0E53"/>
</svg>
