<svg xmlns="http://www.w3.org/2000/svg" viewBox="0 500 1920 460">
  <path d="m 0 960 V 612 Q 5 620 6 628 Q 3 627 1 627 Q 3 642 9 655 Q 17 633 18 595 Q 14 596 10 599 Q 17 578 17 554 Q 15 555 13 558 Q 18 530 16 500 Q 22 533 27 543 Q 25 541 23 542 Q 25 553 30 563 Q 28 561 25 561 Q 31 594 43 623 Q 40 621 37 619 Q 37 627 42 633 Q 47 624 51 612 Q 54 629 63 638 Q 69 627 70 613 Q 65 616 61 622 Q 74 599 78 566 Q 78 590 83 610 Q 80 608 77 609 Q 78 632 85 652 Q 94.5 632.5 104 613 Q 108.5 629 113 645 Q 118 629.5 123 614 Q 121 613 118 615 Q 126 596 130 575 Q 128 574 125 576 Q 134 552 136 523 Q 135 546 140 566 Q 138 563 137 564 Q 137 575 140 585 Q 138 584 136 583 Q 137 610 143 632 Q 145 630.5 147 629 Q 146 635 149 639 Q 160 624 163 599 Q 162 618 166 635 Q 163.5 634.5 161 634 Q 162 645 163 656 Q 165 653 166 650 Q 164 672 170 680 Q 173 681 182 675 Q 194 690 212 691 Q 215 678 215 666 Q 213.5 666.5 212 667 Q 215 659 215 650 Q 213.5 650.5 212 651 Q 216 637 216 616 Q 218 638 224 659 Q 222 656 220 655 Q 223 673 230 690 Q 234 687 237 689 Q 241 693 245 695 Q 251 695 256 689 Q 260 687 263 689 Q 263.5 687.5 264 686 Q 263 682 259 683 Q 264 671 263 653 Q 266 683 277 695 Q 280 690 283 685 Q 286 695 289 705 Q 292 701 295 697 Q 293 697.5 291 698 Q 303 674 306 648 Q 304 648.5 302 649 Q 307 640 308 632 Q 306 632.5 304 633 Q 311 617 312 599 Q 311 623 316 643 Q 314 641.5 312 640 Q 312 659 318 677 Q 315 675.5 312 674 Q 309 692 315 708 Q 328 693 332 664 Q 330 686 335 706 Q 341 704 343 697 Q 340.5 695.5 338 694 Q 349 688 349 678 Q 349 692 357 700 Q 359 690 368 694 Q 376 700 382 694 Q 382 685.5 382 677 Q 383.5 678.5 385 680 Q 388 673 386 666 Q 384 666 382 666 Q 385 653 384 639 Q 388 656 395 670 Q 397 666 398 661 Q 399.5 662.5 401 664 Q 408 644 406 623 Q 404 625 402 627 Q 406 619 406 610 Q 404.5 609.5 403 609 Q 407 593 407 576 Q 408 598 415 617 Q 413 615.5 411 614 Q 414 633 421 648 Q 419 647.5 417 647 Q 418 661 424 673 Q 428.5 660 433 647 Q 440 663 447 679 Q 454 664 454 644 Q 452 644.5 450 645 Q 454 629 454 612 Q 458 636 468 653 Q 464 650 460 647 Q 460 660 466 669 Q 473 662 476 646 Q 480 654.5 484 663 Q 486 658.5 488 654 Q 486 653.5 484 653 Q 493 631 497 607 Q 495 605 492 607 Q 496 601 497 592 Q 495 592 493 592 Q 500 575 503 557 Q 503 580 508 600 Q 505.5 599.5 503 599 Q 504 625 510 635 Q 506.5 633.5 503 632 Q 502 659 509 682 Q 516 672 517 659 Q 515 659 513 659 Q 520 643 523 625 Q 522 651 529 671 Q 525 669 522 664 Q 521 680 525 693 Q 526 698 530 695 Q 535.5 683.5 541 672 Q 540 685 548 694 Q 549.5 692.5 551 691 Q 552 692 553 693 Q 559 683 559 672 Q 557.5 672.5 556 673 Q 559 669 557 665 Q 556 665 555 665 Q 559 659 559 650 Q 560 662 565 669 Q 563.5 668.5 562 668 Q 564 676 569 684 Q 567.5 683.5 566 683 Q 569 689.5 572 696 Q 574.5 689.5 577 683 Q 581 689 585 695 Q 587 695 589 695 Q 593 690 594 683 Q 592 682.5 590 682 Q 592 675 593 666 Q 596 678 603 686 Q 600.5 685.5 598 685 Q 599 691 602 693 Q 607 688 610 682 Q 613 685 614 691 Q 621 678 624 664 Q 622.5 664.5 621 665 Q 625 661 625 656 Q 623.5 656.5 622 657 Q 627 649 629 639 Q 629 658 637 671 Q 634 669 631 667 Q 627 679 639 685 Q 642 681 643 674 Q 643 685 647 694 Q 645 692.5 643 691 Q 643.5 693.5 644 696 Q 647.5 697 651 698 Q 653.5 694.5 656 691 Q 659 695.5 662 700 Q 666 694 667 685 Q 665 686 663 687 Q 667 678 666 670 Q 671 680 676 690 Q 673.5 688.5 671 687 Q 673.5 692 676 697 Q 679 692 682 687 Q 685 690.5 688 694 Q 689 692.5 690 691 Q 688.5 691 687 691 Q 695 681 697 667 Q 695.5 667 694 667 Q 698 664 699 658 Q 697 658.5 695 659 Q 700 652 703 643 Q 703 654 707 664 Q 705.5 663.5 704 663 Q 703 674 708 683 Q 708 690 711 694 Q 714 684.5 717 675 Q 718 682.5 719 690 Q 722 671 725 652 Q 723 653 721 654 Q 722.5 645 724 636 Q 722.5 637 721 638 Q 725 622 725 605 Q 728 625 733 645 Q 731 644.5 729 644 Q 732 663 740 675 Q 737.5 674.5 735 674 Q 738.5 688 742 702 Q 746 689 750 676 Q 758 690 766 704 Q 772 689 772 672 Q 769.5 673 767 674 Q 769.5 657 772 640 Q 776 663 786 682 Q 782.5 679 779 676 Q 781.5 686.5 784 697 Q 789 685.5 794 674 Q 797.5 682.5 801 691 Q 803 686.5 805 682 Q 803 682.5 801 683 Q 811 660 815 635 Q 813 635.5 811 636 Q 816 627 816 618 Q 814 618.5 812 619 Q 818 600 822 581 Q 821 605 825 629 Q 823 627.5 821 626 Q 822 645 827 663 Q 824.5 661.5 822 660 Q 819 683 825 704 Q 827.5 704 830 704 Q 834 696 835 688 Q 832 687.5 829 687 Q 836 673 840 655 Q 840 681 847 699 Q 843.5 695.5 840 692 Q 840.5 698 841 704 Q 845 705 848 704 Q 849.5 702.5 851 701 Q 855 700 858 702 Q 861 697 861 690 Q 862 690.5 863 691 Q 864 687 864 683 Q 862.5 683 861 683 Q 864 677 863 669 Q 865 677 870 683 Q 871.5 681.5 873 680 Q 873.5 680.5 874 681 Q 879 673 879 662 Q 877.5 662.5 876 663 Q 879 660 879 655 Q 877.5 655.5 876 656 Q 879 649 880 640 Q 881 651 886 659 Q 884.5 658 883 657 Q 885 667 891 674 Q 889 673.5 887 673 Q 890 680 893 687 Q 894.5 680.5 896 674 Q 902.5 681 909 688 Q 913 681 914 672 Q 912.5 672.5 911 673 Q 913 664 914 655 Q 917 667 924 676 Q 922 675.5 920 675 Q 921.5 679.5 923 684 Q 927 680 930 672 Q 932 678 935 681 Q 941 669 945 654 Q 943.5 654.5 942 655 Q 946 651 946 646 Q 945 646 944 646 Q 948 639 951 630 Q 948 644 952 654 Q 954 649 954 642 Q 955 654 959 662 Q 957.5 661 956 660 Q 956 668 961 672 Q 963 668 964 663 Q 963 674 968 683 Q 966 682.5 964 682 Q 965 685.5 966 689 Q 969.5 684 973 679 Q 977.5 685 982 691 Q 987 686 988 675 Q 986 675.5 984 676 Q 988 669 988 659 Q 990 671 996 678 Q 994 677.5 992 677 Q 994.5 682.5 997 688 Q 1001 684 1004 677 Q 1006.5 680.5 1009 684 Q 1010.5 682.5 1012 681 Q 1010.5 680.5 1009 680 Q 1016 670 1019 657 Q 1017.5 657 1016 657 Q 1019 654 1020 649 Q 1018.5 649 1017 649 Q 1022 642 1024 633 Q 1023 644 1026 653 Q 1025 652.5 1024 652 Q 1024 661 1029 671 Q 1026.5 670 1024 669 Q 1024 681 1028 693 Q 1032 689 1034 683 Q 1032 683 1030 683 Q 1036 676 1038 667 Q 1038 678 1042 688 Q 1040 687 1038 686 Q 1038 695 1041 702 Q 1046 695.5 1051 689 Q 1053 694 1055 699 Q 1073.5 701 1092 703 Q 1092.5 693 1093 683 Q 1094 694 1099 703 Q 1104.5 703 1110 703 Q 1114 688 1115 671 Q 1113 672.5 1111 674 Q 1116 666 1115 656 Q 1113.5 656.5 1112 657 Q 1115 641 1116 624 Q 1117 646 1125 665 Q 1123 664 1121 663 Q 1123 682 1131 697 Q 1128.5 696 1126 695 Q 1127 698.5 1128 702 Q 1133.5 701.5 1139 701 Q 1140 698 1141 695 Q 1143.5 698 1146 701 Q 1154.5 701 1163 701 Q 1163 696.5 1163 692 Q 1161 692.5 1159 693 Q 1163 676 1164 658 Q 1167 681 1176 700 Q 1172.5 697.5 1169 695 Q 1170 698.5 1171 702 Q 1177 702.5 1183 703 Q 1183.5 699 1184 695 Q 1186.5 698.5 1189 702 Q 1191 702 1193 702 Q 1199.5 678 1206 654 Q 1204 655 1202 656 Q 1206 647 1207 638 Q 1205.5 638.5 1204 639 Q 1210 621 1213 602 Q 1212 627 1215 650 Q 1213.5 648.5 1212 647 Q 1213 666 1218 683 Q 1215 682 1212 681 Q 1213 692.5 1214 704 Q 1218.5 704 1223 704 Q 1228 689 1232 672 Q 1230 689 1234 703 Q 1243 702.5 1252 702 Q 1253 688.5 1254 675 Q 1260 686 1266 697 Q 1271 684 1270 670 Q 1267.5 673 1265 676 Q 1272 657 1270 635 Q 1272 651 1279 665 Q 1277 664.5 1275 664 Q 1277.5 673 1280 682 Q 1287 664 1286 642 Q 1283.5 644 1281 646 Q 1286 631 1286 615 Q 1284.5 615.5 1283 616 Q 1286 598 1285 578 Q 1287 593 1293 607 Q 1291.5 606.5 1290 606 Q 1290 614 1295 621 Q 1293 620 1291 619 Q 1294 640 1303 661 Q 1301 660 1299 659 Q 1301 663.5 1303 668 Q 1306 661 1309 654 Q 1312.5 663.5 1316 673 Q 1321 665 1321 656 Q 1319 658 1317 660 Q 1323 643 1326 625 Q 1327 639 1331 652 Q 1329.5 651.5 1328 651 Q 1325 666 1332 681 Q 1337.5 667.5 1343 654 Q 1346.5 664.5 1350 675 Q 1356 666 1357 656 Q 1355 656.5 1353 657 Q 1359 644 1361 629 Q 1359.5 629.5 1358 630 Q 1363 617 1365 603 Q 1367.5 612.5 1370 622 Q 1368 621.5 1366 621 Q 1366 629 1370 637 Q 1368.5 635.5 1367 634 Q 1366 651 1371 667 Q 1372 666.5 1373 666 Q 1374.5 669.5 1376 673 Q 1381 659 1384 644 Q 1384 658 1386 671 Q 1384.5 669.5 1383 668 Q 1380 676 1384 682 Q 1384.5 681 1385 680 Q 1383 689 1388 698 Q 1401 699 1415 697 Q 1429 693 1443 693 Q 1443 690 1443 687 Q 1441.5 687 1440 687 Q 1442 679 1442 670 Q 1443 681 1449 689 Q 1451 687 1451 685 Q 1452.5 685.5 1454 686 Q 1459 678 1458 666 Q 1456.5 666.5 1455 667 Q 1458 663 1458 659 Q 1456.5 659.5 1455 660 Q 1458 652 1458 644 Q 1460 654 1464 662 Q 1463 661.5 1462 661 Q 1464 671 1470 678 Q 1468 677.5 1466 677 Q 1469 683.5 1472 690 Q 1475 684 1477 678 Q 1484 683 1488 692 Q 1493 687 1493 676 Q 1491.5 677 1490 678 Q 1493 668 1494 657 Q 1496 672 1503 681 Q 1501 680 1499 679 Q 1500.5 683.5 1502 688 Q 1505.5 683 1509 678 Q 1511.5 682 1514 686 Q 1521 673 1524 658 Q 1522.5 658 1521 658 Q 1523.5 654 1526 650 Q 1524.5 650 1523 650 Q 1527 642 1529 633 Q 1529 644 1532 651 Q 1532 649 1532 647 Q 1534.5 655.5 1537 664 Q 1536 664 1535 664 Q 1538 670 1541 676 Q 1542 671.5 1543 667 Q 1544 674.5 1545 682 Q 1555 681 1566 682 Q 1566.5 680.5 1567 679 Q 1565 679 1563 679 Q 1566 671 1567 660 Q 1568 673 1575 682 Q 1573.5 681.5 1572 681 Q 1572 682.5 1572 684 Q 1575.5 685.5 1579 687 Q 1581 683.5 1583 680 Q 1585 684 1587 688 Q 1589 686.5 1591 685 Q 1589.5 684.5 1588 684 Q 1594 674 1598 660 Q 1597 660 1596 660 Q 1597.5 656.5 1599 653 Q 1597.5 653 1596 653 Q 1601 645 1603 635 Q 1603 648 1606 657 Q 1604.5 656.5 1603 656 Q 1603 666 1607 674 Q 1605 673.5 1603 673 Q 1603.5 679.5 1604 686 Q 1615 684 1617 670 Q 1617.5 676.5 1618 683 Q 1624 680 1651 693 Q 1673 690 1694 690 Q 1695.5 674 1697 658 Q 1705.5 672.5 1714 687 Q 1719 669 1719 649 Q 1716 652.5 1713 656 Q 1719 632 1718 604 Q 1722 624 1730 643 Q 1728 642 1726 641 Q 1726 655 1733 669 Q 1740 644 1741 613 Q 1737.5 614.5 1734 616 Q 1740 596 1740 574 Q 1738.5 575.5 1737 577 Q 1740 550 1739 521 Q 1743 544 1750 564 Q 1747.5 562 1745 560 Q 1748 572 1753 583 Q 1750.5 582 1748 581 Q 1754 611 1765 638 Q 1761.5 636 1758 634 Q 1761.5 640.5 1765 647 Q 1768.5 637.5 1772 628 Q 1776 641 1783 652 Q 1788 642 1789 630 Q 1786 633.5 1783 637 Q 1792 612 1796 586 Q 1797 608 1803 625 Q 1800.5 624 1798 623 Q 1797 644 1804 664 Q 1812.5 646.5 1821 629 Q 1826 644 1831 659 Q 1834.5 645 1838 631 Q 1835.5 631 1833 631 Q 1843 613 1845 593 Q 1843.5 594 1842 595 Q 1850 573 1850 548 Q 1852 566 1857 585 Q 1855 584.5 1853 584 Q 1853 595 1857 605 Q 1854 603 1851 601 Q 1854.5 624 1858 647 Q 1859.5 645.5 1861 644 Q 1862.5 648 1864 652 Q 1872 636 1876 620 Q 1875 636 1880 650 Q 1877.5 649 1875 648 Q 1874 659 1877 668 Q 1878 666.5 1879 665 Q 1879.5 672 1880 679 Q 1882 671 1890 668 Q 1893 679 1901 683 Q 1907 686 1912 681 Q 1916 672.5 1920 664 Q 1918 784.5 1920 960 H 0" fill="#130426"/>
</svg>