<svg width="1921" height="461" viewBox="0 0 1921 461" fill="none" xmlns="http://www.w3.org/2000/svg">
<path d="M86.5 387H76.5L41.5 333.5L31.5 318H26L53 365.5L58.5 409L39 364L38 387.5L46 433L73.5 400L76 389L92 430.5L101 435.5L109.5 407.5L86.5 387Z" fill="#B13682"/>
<path d="M365.5 246L371 247.5V258L321.5 318.5L340.5 287.5L319.5 310L347 266.5L365.5 246Z" fill="#B153B6"/>
<path d="M139.5 405L365.5 246L347 266.5L319.5 310L340.5 287.5L322.5 317L254 400L128.5 435.5H121L126 411L139.5 405Z" fill="#982E82"/>
<path d="M377.5 250L457.5 189L300.5 366.5L372.5 265L377.5 250Z" fill="#892A82"/>
<path d="M573 217.5L581 254L550 193.5L602.5 198L670.5 228L629.5 229L642.5 251.5L579.5 214.5L573 217.5Z" fill="#A44DB5"/>
<path d="M1292 312L1274.5 282.5L1266 341L1273.5 371L1292 375.5V312Z" fill="#9A2F82"/>
<path d="M1611.5 300L1569.5 230.5L1563 235L1484 250H1546L1495.5 257L1476.5 335L1546.5 375.5L1611.5 300Z" fill="#902C82"/>
<path d="M1746.5 225L1729.5 201.5L1675.5 239.5L1651.5 285L1693.5 265L1746.5 225Z" fill="#822882"/>
<path d="M23.5 297.5L0 290.5L7.5 392L38 413L39 364.5L58.5 409L53 365.5L26 318H31.5L76.5 387.5L23.5 297.5Z" fill="#B957B6"/>
<path d="M0 461V290.5L7.5 392L38 413V386.5L46 433L73.5 400L76 389L80 399L92.5 430.5L101 435.5L109.5 407.5L138 406L126 411L121 435.5H128.5L254 400L371 258V247.5L377.5 250L372.5 265L300.5 366.5L457.5 189L519 168.5L502.5 212L513.5 215.5L502.5 243.5L519 281.5L540 287L546.5 254.5L559 284H573L550 202V193.5L581.5 254.5L648.5 262L628.5 228L648.5 243.5H680.5L670.5 228L716 249L745 254.5L1023.5 274L1071.5 303.5L1157.5 333.5L1174.5 329.5L1084.5 278.5L1157.5 311L1156.5 315.5L1177 327.5L1210.5 334.5L1175.5 307L1241.5 334.5L1257.5 331.5L1284 222.5L1266 341L1274 371L1292 375.5V208L1396.5 25.5L1423 0L1408 25.5L1355 219.5L1366 291L1392.5 321L1443 285L1465.5 243.5L1512 216L1529 168.5L1569.5 230.5L1563 235L1484 250H1546.5L1495.5 257L1477 334.5L1546.5 375.5L1611.5 300L1631.5 294L1675.5 239.5L1651.5 285L1693.5 265L1746.5 225L1729.5 201.5L1743 208.5L1763.5 229L1758 250L1899.5 228L1920 140V251L1823.5 306L1777.5 352.5L1920 311.5V461H0Z" fill="url(#paint0_linear_732_260)"/>
<path d="M519 168.5L535.5 172.5L546.5 255L540 287L519 281.5L502.5 243.5L513.5 215.5L502.5 212L519 168.5Z" fill="#A84EB6"/>
<path d="M680.5 243.5L670.5 228L629 228.5L648.5 243.5H680.5Z" fill="#852982"/>
<path d="M1904 209L1920.5 141V78L1779 182L1833 160L1829 150.5L1843 137.5L1893.5 114L1857 158L1850 173L1897 160L1908.5 147L1910 127.5H1913L1904 209Z" fill="#A056B5"/>
<path d="M1777.5 352.5L1920 311.5L1920.5 250.5L1823.5 305.5L1777.5 352.5Z" fill="#952E82"/>
<path d="M1899.5 228L1904 209L1913 127.5H1910L1908.5 146.5L1897 160L1850.5 172.5L1857 158L1893.5 114L1843 137.5L1829 150.5L1833 160L1779 182L1743 208.5L1763 229L1757.5 250.5L1899.5 228Z" fill="#6C2181"/>
<path d="M1512 216L1529 168.5L1423 0L1408 25.5L1355 219.5L1366 291L1392.5 321L1443 285.5L1465.5 243.5L1512 216Z" fill="url(#paint1_linear_732_260)"/>
<path d="M1499 136.5L1426 20L1412.5 45L1416 231L1431 145.5V112.5L1436 89.5L1443.5 84.5L1457 122L1484.5 167.5L1479 224.5L1448.5 251L1417.5 243.5L1449 256.5L1455.5 250L1485 231L1485.5 179.5L1490 175L1428.5 47L1470 102L1465.5 112.5L1503 189L1494.5 141.5L1499 136.5Z" fill="#A84FB6"/>
<path d="M1284 222.5L1292 207.5V312L1274.5 283L1284 222.5Z" fill="#A94FB6"/>
<path d="M1257 269L1284 222.5L1257.5 331.5L1241.5 334.5L1176 307.5L1210.5 334.5L1177 327.5L1156.5 315.5L1157.5 310.5L1175 306.5L1257 269Z" fill="#8A2A82"/>
<path d="M1023.5 274L1086 279L1175 329.5L1157.5 333.5L1071 303.5L1023.5 274Z" fill="#B957B6"/>
<path d="M648.5 262L642.5 251.5L579.5 214.5L573 217.5L581 254.5L648.5 262Z" fill="#892A82"/>
<path d="M550 193.5L602.5 198L535.5 172.5L546.5 254.5L559 284H573.5L550.5 202.5L550 193.5Z" fill="#792581"/>
<defs>
<linearGradient id="paint0_linear_732_260" x1="960" y1="0" x2="960" y2="461" gradientUnits="userSpaceOnUse">
<stop offset="0.104167" stop-color="#481781"/>
<stop offset="1" stop-color="#902D72"/>
</linearGradient>
<linearGradient id="paint1_linear_732_260" x1="1442" y1="0" x2="1442" y2="321" gradientUnits="userSpaceOnUse">
<stop stop-color="#4B1881"/>
<stop offset="1" stop-color="#992F82"/>
</linearGradient>
</defs>
</svg>
