<svg width="529" height="449" viewBox="0 0 529 449" fill="none" xmlns="http://www.w3.org/2000/svg">
<path d="M40.7617 378H13.418L48.2129 248.117L70.0879 268.625L40.7617 378ZM123.121 378H61.5977L90.9238 268.625H179.791L172.477 295.969H110.953L96.2559 350.656H130.436L134.127 336.984H120.455L134.605 309.641H168.785L150.465 378L117.652 398.508L123.121 378ZM232.824 378L254.836 295.969H220.656L198.645 378H171.301L200.627 268.625H289.494L260.168 378H232.824ZM308.348 378H281.004L315.799 248.117L337.674 268.625L308.348 378ZM395.629 295.969L373.617 378L340.805 398.508L368.285 295.969H347.777L361.928 268.625H423.451L409.301 295.969H395.629ZM440.869 268.625H502.393L495.078 295.969H460.898L457.207 309.641H491.387L477.236 336.984H449.893L446.201 350.656H480.381L473.066 378H411.543L440.869 268.625Z" fill="black"/>
<path d="M30.7617 378H3.41797L38.2129 248.117L60.0879 268.625L30.7617 378ZM113.121 378H51.5977L80.9238 268.625H169.791L162.477 295.969H100.953L86.2559 350.656H120.436L124.127 336.984H110.455L124.605 309.641H158.785L140.465 378L107.652 398.508L113.121 378ZM222.824 378L244.836 295.969H210.656L188.645 378H161.301L190.627 268.625H279.494L250.168 378H222.824ZM298.348 378H271.004L305.799 248.117L327.674 268.625L298.348 378ZM385.629 295.969L363.617 378L330.805 398.508L358.285 295.969H337.777L351.928 268.625H413.451L399.301 295.969H385.629ZM430.869 268.625H492.393L485.078 295.969H450.898L447.207 309.641H481.387L467.236 336.984H439.893L436.201 350.656H470.381L463.066 378H401.543L430.869 268.625Z" fill="white"/>
<path d="M174.549 117.348V205.552L233.572 249.811" fill="black"/>
<path d="M238.321 161.219L213.092 191.296L238.321 249.813" fill="black"/>
<path d="M276.398 117.348L243.85 156.463V242.72" fill="black"/>
<path d="M266.899 166.902L246.42 249.809L280.681 205.55" fill="black"/>
<path d="M309.725 170.254L252.182 247.94L309.725 212.175" fill="black"/>
<path d="M327.401 134.566L314.008 164.565V208.356" fill="black"/>
<path d="M335.031 154.051L330.203 183.582L339.313 171.505" fill="black"/>
<path d="M320.704 101.531L314.008 157.477L327.401 124.128" fill="black"/>
<path d="M300.691 85.0117L291.736 123.036L304.662 134.568" fill="black"/>
<path d="M286.852 129.523V186.945L309.82 152.238" fill="black"/>
<path d="M280.681 122.023L269.857 161.217L282.472 197.294" fill="black"/>
<path d="M255.217 78.2305L240.111 150.696L276.163 108.385" fill="black"/>
<path d="M161.622 136.203L149.396 174.462L161.622 186.851" fill="black"/>
<path d="M176.105 111.348L197.285 155.918V87.8164" fill="black"/>
<path d="M220.257 93.1562L205.822 169.08L228.791 123.974" fill="black"/>
<path d="M230.892 140.367L208.375 183.752L231.982 155.442" fill="black"/>
<path d="M221.578 44.2578L243.848 113.139L252.18 73.3997" fill="black"/>
<path d="M246.417 0L221.578 40.0506L238.319 55.7903" fill="black"/>
<path d="M255.762 61.6367L291.736 101.531L299.211 81.5841" fill="black"/>
<path d="M168.152 119.746V207.951L227.175 252.209" fill="white"/>
<path d="M231.924 163.617L206.695 193.694L231.924 252.212" fill="white"/>
<path d="M270.001 119.746L237.453 158.862V245.119" fill="white"/>
<path d="M260.502 169.301L240.023 252.207L274.285 207.949" fill="white"/>
<path d="M303.328 172.652L245.785 250.338L303.328 214.573" fill="white"/>
<path d="M321.002 136.965L307.609 166.964V210.755" fill="white"/>
<path d="M328.632 156.449L323.805 185.981L332.915 173.903" fill="white"/>
<path d="M314.306 103.93L307.609 159.876L321.002 126.526" fill="white"/>
<path d="M294.293 87.4102L285.338 125.435L298.264 136.967" fill="white"/>
<path d="M280.453 131.922V189.343L303.422 154.637" fill="white"/>
<path d="M274.284 124.43L263.461 163.623L276.075 199.7" fill="white"/>
<path d="M248.821 80.6367L233.715 153.102L269.767 110.792" fill="white"/>
<path d="M155.225 138.602L143 176.86L155.225 189.249" fill="white"/>
<path d="M169.709 113.747L190.889 158.316V90.2148" fill="white"/>
<path d="M213.86 95.5547L199.426 171.479L222.394 126.372" fill="white"/>
<path d="M224.496 142.766L201.979 186.151L225.585 157.84" fill="white"/>
<path d="M215.182 46.6562L237.451 115.537L245.783 75.7981" fill="white"/>
<path d="M240.021 2.39844L215.182 42.449L231.923 58.1888" fill="white"/>
<path d="M249.365 64.0352L285.34 103.93L292.815 83.9825" fill="white"/>
<path d="M466.007 426.352L462.076 441L450.357 448.324L456.046 426.352H439.151L450.577 401.938H460.343L453.971 416.586H458.854L462.784 401.938H472.55L468.619 416.586H473.502L470.89 426.352H466.007ZM486.778 431.234L484.166 441H474.4L477.013 431.234H486.778ZM491.607 441L502.081 401.938H528.937L518.463 441H491.607ZM509.234 411.703L503.985 431.234H511.31L516.559 411.703H509.234Z" fill="black"/>
<path d="M461.007 426.352L457.076 441L445.357 448.324L451.046 426.352H434.151L445.577 401.938H455.343L448.971 416.586H453.854L457.784 401.938H467.55L463.619 416.586H468.502L465.89 426.352H461.007ZM481.778 431.234L479.166 441H469.4L472.013 431.234H481.778ZM486.607 441L497.081 401.938H523.937L513.463 441H486.607ZM504.234 411.703L498.985 431.234H506.31L511.559 411.703H504.234Z" fill="white"/>
</svg>
