<svg xmlns="http://www.w3.org/2000/svg" viewBox="0 365 1920 595">
  <path d="M 0 960 V 448 Q 8 429 12 403 Q 10 448 25 485 Q 38 471 37 445 Q 37 442 32 445 Q 37 429 39 412 Q 37 412 36 414 Q 41 395 40 374 Q 42 390 46 404 Q 45 403 44 403 Q 44 412 48 421 Q 46 419 44 418 Q 47 442 54 465 Q 52 463.5 50 462 Q 48 471 52 483 Q 65 487 70 441 Q 69 461 75 479 Q 73 478 71 478 Q 76 499 87 518 Q 95 503 96 485 Q 93 487 89 491 Q 98 473 102 443 Q 103 461 108 480 Q 105 478 103 478 Q 102 490 107 501 Q 108 498 110 496 Q 112 521 120 529 Q 124 532 130 524 Q 135 520 137 533 Q 148.5 522.5 160 512 Q 166 514 166 548 Q 173 539.5 180 531 Q 177 547 174 563 Q 177.5 563.5 181 564 Q 181 572 181 580 Q 183 582 185 584 Q 193 567 196 548 Q 192.5 551 189 554 Q 197 534 200 511 Q 202 527 206 543 Q 204 542.5 202 542 Q 200 561 209 578 Q 221 552 222 520 Q 219.5 522 217 524 Q 224 489 227 455 Q 224 456.5 221 458 Q 225 446 226 433 Q 223.5 434 221 435 Q 228 414 227 392 Q 227 420 237 446 Q 235 445.5 233 445 Q 235 470 246 492 Q 242 491 238 490 Q 238 513 247 533 Q 254 518 254 501 Q 249 505.5 244 510 Q 257 478 261 439 Q 262 468 269 495 Q 266.5 494 264 493 Q 260 511 268 528 Q 270.5 524 273 520 Q 280 542 291 558 Q 297 542 296 526 Q 292.5 527.5 289 529 Q 299 506 302 482 Q 300 482.5 298 483 Q 306 455 308 424 Q 308 448 313 470 Q 311.5 469.5 310 469 Q 307 480 314 493 Q 311.5 492 309 491 Q 311 525 316 549 Q 320 526 330 507 Q 334 536 345 554 Q 352 543 351 529 Q 348 531 345 534 Q 354 512 356 489 Q 356 507 361 524 Q 359 524 357 524 Q 358 546 367 565 Q 374 556.5 381 548 Q 385.5 560 390 572 Q 417 552 418 502 Q 419.5 513.5 421 525 Q 431 502 434 476 Q 429 481 424 486 Q 439 451 440 414 Q 442 442 449 470 Q 446 469.5 443 469 Q 444 478 445 487 Q 447 492 451 493 Q 456 479 457 463 Q 457 480 462 497 Q 460 496.5 458 496 Q 458 499.5 458 503 Q 463 505.5 465 507 Q 475 494 473 474 Q 471.5 474 470 474 Q 474 455 477 434 Q 478.5 449.5 480 465 Q 478.5 464.5 477 464 Q 478.5 472.5 480 481 Q 478.5 480 477 479 Q 475 503 484 528 Q 481.5 526 479 524 Q 479.5 531 480 538 Q 487 539 490 516 Q 491 553 496 587 Q 499.5 570 503 553 Q 499.5 554.5 496 556 Q 511 525 516 487 Q 512.5 488.5 509 490 Q 518 471 520 449 Q 518 450.5 516 452 Q 523 427 526 400 Q 526 421 530 440 Q 528.5 439.5 527 439 Q 526 449 531 460 Q 529 459.5 527 459 Q 525 479 530 497 Q 534 485 536 470 Q 536 489 541 507 Q 538.5 505 536 503 Q 539 530 549 556 Q 544.5 551.5 540 547 Q 544 575 552 603 Q 557 587 560 569 Q 556 572.5 552 576 Q 561 556 564 534 Q 561 537 558 540 Q 566 520 567 499 Q 568 514 573 528 Q 578 509 580 490 Q 578 491 576 492 Q 583 466 586 441 Q 586 462 591 482 Q 589 478 586 477 Q 586 489 590 501 Q 588 500 586 499 Q 586 513 589 527 Q 591 534 595 537 Q 596 531.5 597 526 Q 594 525 592 528 Q 599 501 602 473 Q 600.5 474 599 475 Q 602 465 603 454 Q 601.5 454.5 600 455 Q 605 436 607 417 Q 607 441 612 465 Q 610.5 463.5 609 462 Q 610 485 617 505 Q 614 504 611 503 Q 612 534 622 558 Q 625 552 626 546 Q 624 546 622 548 Q 627 534 631 518 Q 631 531 635 542 Q 633 541 631 541 Q 633 571 640 583 Q 644 582.5 648 582 Q 651 594 657 601 Q 665 586 665 569 Q 662 569 660 572 Q 667 555 669 536 Q 667 535 666 537 Q 672 515 674 490 Q 674 509 679 527 Q 677 526 675 525 Q 675 534 679 544 Q 677 542 675 542 Q 676 567 682 592 Q 681 591.5 680 591 Q 680.5 596.5 681 602 Q 683 604.5 685 607 Q 686 601.5 687 596 Q 688.5 603 690 610 Q 695 606.5 700 603 Q 700.5 598.5 701 594 Q 698.5 595.5 696 597 Q 699 582 701 567 Q 699.5 567.5 698 568 Q 701 551 701 534 Q 701 547 707 558 Q 705.5 558 704 558 Q 704 566 708 572 Q 706.5 572 705 572 Q 708 592 717 613 Q 715.5 612 714 611 Q 715 614.5 717 619 Q 719.5 612 723 606 Q 725 617 730 624 Q 733 617 735 608 Q 733 609 731 610 Q 738 594 741 577 Q 741 590 744 603 Q 742.5 602.5 741 602 Q 739 618 746 632 Q 752 619.5 758 607 Q 761.5 616.5 765 626 Q 768 617 770 607 Q 768.5 607 767 607 Q 774 594 776 581 Q 774.5 581.5 773 582 Q 778 567 779 550 Q 779 562 783 574 Q 781.5 573 780 572 Q 780 579 782 587 Q 781 586.5 780 586 Q 779 601 783 617 Q 784.5 611.5 786 606 Q 788.5 611 791 616 Q 800 600 802 567 Q 804 583 809 594 Q 807 593 805 594 Q 807 604 811 613 Q 816 594 817 572 Q 814.5 572.5 812 573 Q 816 558 817 542 Q 815.5 542.5 814 543 Q 816 525 816 504 Q 820 519.5 824 535 Q 822.5 534.5 820 534 Q 821 541 825 549 Q 823.5 549 822 549 Q 826 570 833 591 Q 832 590 831 589 Q 830 593 834 597 Q 836.5 590 839 583 Q 842 593 847 602 Q 850 593 852 584 Q 849 586.5 846 589 Q 854 573 857 553 Q 857 568 860 581 Q 858 581 856 581 Q 857 596 862 609 Q 868 596.5 874 584 Q 877 594.5 880 605 Q 883 595 886 585 Q 884.5 585 883 585 Q 888 571 891 557 Q 889.5 557.5 888 558 Q 893 541 895 523 Q 895 537 898 550 Q 897 549.5 895 549 Q 895 557 898 564 Q 896.5 563.5 895 563 Q 895 580 899 596 Q 900.5 595.5 902 595 Q 904 602 906 609 Q 908 606 908 602 Q 907 601 905 601 Q 910 590 913 578 Q 912 589 915 600 Q 913.5 599 912 598 Q 912.5 605 913 612 Q 914 611 915 610 Q 914 621 917 632 Q 923 638 926 600 Q 927 614 932 628 Q 930.5 627.5 929 627 Q 927 631 929 635 Q 931 640 936 641 Q 940 625 942 607 Q 939 609 936 609 Q 941 595 943 580 Q 942 581 940 581 Q 944 563 945 545 Q 946 559 950 572 Q 948.5 571.5 947 571 Q 947 580 951 587 Q 949.5 586.5 948 586 Q 950 607 957 627 Q 955.5 626.5 954 626 Q 954 630 957 634 Q 960 627.5 963 621 Q 967 629 969 638 Q 976 636 975 624 Q 972 625 969 626 Q 980 612 983 589 Q 982 605 984 620 Q 982.5 619.5 981 619 Q 981 628 987 634 Q 990.5 623.5 994 613 Q 998.5 621.5 1003 630 Q 1006 621 1006 611 Q 1002.5 614 999 617 Q 1005 602 1007 582 Q 1004.5 585 1002 588 Q 1006 571 1008 552 Q 1010 566 1015 578 Q 1013 577.5 1011 577 Q 1011 588 1015 595 Q 1018 593 1023 567 Q 1022 580 1024 592 Q 1023 591.5 1022 591 Q 1021 598 1024 606 Q 1022.5 605 1021 604 Q 1020 611 1024 615 Q 1026.5 601.5 1029 588 Q 1032 596 1036 601 Q 1040 596 1039 587 Q 1037 587.5 1035 588 Q 1037 576 1037 564 Q 1038 579 1046 591 Q 1044.5 590.5 1043 590 Q 1043 594 1046 595 Q 1047 588.5 1048 582 Q 1045.5 582 1043 582 Q 1047 572 1049 559 Q 1047.5 559.5 1046 560 Q 1051 548 1052 530 Q 1052 542 1057 553 Q 1056 552.5 1055 552 Q 1054 558 1058 564 Q 1056 563.5 1054 563 Q 1055 576 1060 588 Q 1068 566 1070 537 Q 1073.5 551.5 1077 566 Q 1082 549 1079 531 Q 1077.5 531 1076 531 Q 1081 514 1081 496 Q 1083.5 509.5 1086 523 Q 1085 522 1084 522 Q 1084 530 1088 538 Q 1086 536 1084 536 Q 1086 559 1093 580 Q 1098 574 1099 565 Q 1096.5 567 1094 569 Q 1102 552 1105 534 Q 1104 548 1108 561 Q 1106 560.5 1104 560 Q 1104 575 1109 587 Q 1115 577 1118 565 Q 1123 576 1126 589 Q 1135 575 1138 558 Q 1136 557 1134 558 Q 1140 545 1142 532 Q 1141 551 1147 568 Q 1145 564 1142 562 Q 1142 582 1149 598 Q 1148 597.5 1147 597 Q 1146 601 1149 602 Q 1152 598.5 1155 595 Q 1160.5 609 1166 623 Q 1175 628 1174 589 Q 1179 595 1184 601 Q 1195 575 1197 545 Q 1194 548.5 1191 552 Q 1197 528 1197 503 Q 1200 523 1207 539 Q 1205 538 1202 538 Q 1203 550 1208 561 Q 1213 542 1215 522 Q 1213 523 1211 524 Q 1214 516 1215 507 Q 1213.5 507.5 1212 508 Q 1215 492 1216 475 Q 1217 496 1222 516 Q 1220.5 515 1219 514 Q 1222 532 1229 548 Q 1225 550 1222 545 Q 1222 559 1227 571 Q 1233 550 1234 525 Q 1231 528 1227 529 Q 1234 510 1237 487 Q 1235 489 1233 489 Q 1237 464 1238 437 Q 1240 458 1246 478 Q 1244 478 1242 476 Q 1244.5 486.5 1247 497 Q 1244 497 1242 495 Q 1247 524 1255 553 Q 1252 552 1249 549 Q 1249 558 1254 565 Q 1259 554 1261 542 Q 1258.5 542.5 1256 543 Q 1263 526 1267 509 Q 1266 532 1272 554 Q 1268 551 1266 547 Q 1266 578 1279 605 Q 1288 586 1292 566 Q 1290 567 1288 568 Q 1301 553 1299 523 Q 1294 527 1292 532 Q 1299 509 1299 480 Q 1301 499 1308 517 Q 1305.5 517 1303 517 Q 1306 532 1313 544 Q 1316 529.5 1319 515 Q 1322.5 539.5 1326 564 Q 1332 551.5 1338 539 Q 1337 539 1336 539 Q 1344 520 1345 498 Q 1343 499.5 1341 501 Q 1346 476 1347 449 Q 1348 470 1354 489 Q 1352.5 488.5 1351 488 Q 1350 498 1355 508 Q 1353 507.5 1351 507 Q 1355 536 1363 564 Q 1359 564 1357 560 Q 1359 570.5 1361 581 Q 1363 577 1365 573 Q 1368 594 1376 613 Q 1381 603 1387 597 Q 1392 612 1398 613 Q 1409 612 1415 545 Q 1418 552 1424 555 Q 1430 540 1428 521 Q 1422 522 1418 528 Q 1428 510 1431 486 Q 1427 489 1423 493 Q 1432 472 1435 448 Q 1437 466 1441 482 Q 1438 482 1436 480 Q 1438 506 1450 530 Q 1448 529 1446 528 Q 1446 535 1450 540 Q 1457 515 1459 487 Q 1455 489 1451 491 Q 1460 472 1461 449 Q 1459 450 1457 451 Q 1463 427 1463 398 Q 1465 419 1471 438 Q 1469 437 1467 436 Q 1468 448 1472 459 Q 1469.5 457.5 1467 456 Q 1471 486 1480 515 Q 1476.5 512.5 1473 510 Q 1475 529 1482 549 Q 1487 541 1492 533 Q 1494.5 538.5 1497 544 Q 1501 534 1503 522 Q 1499 525.5 1495 529 Q 1504 510 1506 485 Q 1507 503 1512 518 Q 1510.5 517.5 1509 517 Q 1507 525 1511 531 Q 1518 513 1522 491 Q 1523 533 1534 564 Q 1543 550 1546 526 Q 1543 527 1540 528 Q 1543 514 1546 499 Q 1544.5 499 1543 499 Q 1548 482 1548 464 Q 1549 478 1554 490 Q 1552.5 489 1551 488 Q 1551 497 1554 505 Q 1552 505 1550 503 Q 1553 524 1560 546 Q 1558 545 1556 544 Q 1557.5 553 1559 562 Q 1571 569 1575 521 Q 1576.5 540 1578 559 Q 1576.5 558 1575 557 Q 1582.5 574.5 1591 593 Q 1594.5 578 1598 564 Q 1595 569 1592 570 Q 1601 551 1604 527 Q 1604 545 1610 559 Q 1606 559 1604 557 Q 1606 567.5 1608 578 Q 1609.5 577 1611 576 Q 1614 587.5 1617 599 Q 1634 588 1638 528 Q 1635.5 530 1633 532 Q 1642 512 1644 487 Q 1645 507 1650 521 Q 1648 520 1646 519 Q 1645 541 1653 559 Q 1664 530 1668 498 Q 1664 502 1660 504 Q 1667 468 1670 433 Q 1668 435 1665 437 Q 1669 424 1670 412 Q 1667 415 1665 414 Q 1671 391 1671 365 Q 1673 397 1683 426 Q 1680.5 425 1678 424 Q 1681 448 1690 471 Q 1686 471 1682 469 Q 1683 492 1691 512 Q 1697 497 1698 480 Q 1694 486 1688 487 Q 1702 456 1704 417 Q 1707 446 1714 474 Q 1710 474 1707 471 Q 1708 490 1713 507 Q 1715 502 1717 497 Q 1725.5 517 1734 537 Q 1739 522 1740 505 Q 1736.5 506.5 1733 508 Q 1743 485 1746 460 Q 1744 461 1742 462 Q 1749 433 1752 401 Q 1753 426 1757 450 Q 1755.5 449 1754 448 Q 1754 460 1757 473 Q 1755 471.5 1753 470 Q 1754 500 1761 527 Q 1763 503 1774 485 Q 1779 512 1788 531 Q 1794 524 1794 507 Q 1790.5 511.5 1787 516 Q 1796 492 1800 466 Q 1799 484 1806 502 Q 1804 501.5 1802 501 Q 1800 523 1811 544 Q 1818.5 535 1826 526 Q 1830 538 1834 550 Q 1861 534 1861 487 Q 1863 495 1865 503 Q 1875 481 1878 455 Q 1872.5 461 1867 467 Q 1881 432 1886 391 Q 1887 422 1894 449 Q 1890.5 448.5 1887 448 Q 1887 468 1895 471 Q 1899 459 1901 444 Q 1901 460 1907 475 Q 1904.5 474.5 1902 474 Q 1900 482 1906 483 Q 1914 470 1916 452 Q 1914.5 452.5 1913 453 Q 1916.5 436 1920 419 V 960 H 0" fill="#261B5B"/>
</svg>