<svg width="1922" height="648" viewBox="0 0 1922 648" fill="none" xmlns="http://www.w3.org/2000/svg">
<path d="M0.5 647.006V175.006C196.453 83.8097 314.691 29.8434 328.5 0.999494C346.916 -4.02656 385.808 22.7782 453.769 69.6172L456.5 71.4995C483.192 99.7538 500.678 108.106 534 116.499C566.142 121.424 582.717 126.577 610.5 138.999C628.114 118.3 653 126.499 682.5 112.499C712 98.4995 766.157 94.6396 818.5 71.4995C851.5 51.9995 867.002 28.5191 903.5 9.99949C949.772 52.2876 980.225 67.8606 1039 87.4995C1054.03 82.9641 1061.65 79.9219 1072 72.4989C1091.8 70.3546 1149.48 121.325 1205 123.999C1246.21 139.234 1267.61 144.618 1304 151.005C1318 151.005 1343 119.999 1366 107.505C1389 95.0116 1404 124.005 1450.5 141.005C1497 158.005 1477.35 142.057 1491.5 130.005C1501.84 129.5 1506.75 127.826 1515 124.005C1536.23 130.745 1552.85 135.171 1589.5 139.005C1614.47 133.906 1627.85 128.316 1651 115.006C1662.17 111.651 1668.52 110.291 1681 115.006C1721.24 132.597 1741.49 138.45 1773.5 144.006C1805.23 155.033 1822.06 160.236 1846 163.506C1883.62 165.645 1901.2 168.115 1922 176.006V647.006H0.5Z" fill="url(#paint0_linear_732_237)"/>
<defs>
<linearGradient id="paint0_linear_732_237" x1="961.25" y1="0.398438" x2="961" y2="404" gradientUnits="userSpaceOnUse">
<stop stop-color="#4A1B7F"/>
<stop offset="0.322917" stop-color="#732381"/>
<stop offset="0.588542" stop-color="#AC3482"/>
<stop offset="0.875" stop-color="#AA4EAC"/>
</linearGradient>
</defs>
</svg>
