<svg xmlns="http://www.w3.org/2000/svg" viewBox="0 314 1920 588">
  <path d="M 0 902 V 603 Q 11 607 22 611 Q 49 655.5 76 700 Q 81 700 86 700 Q 97.5 710 109 720 Q 124 719 139 718 Q 252 638.5 365 559 Q 370.5 560.5 376 562 Q 416.5 532 457 502 Q 487.5 490.5 518 479 Q 620 515 716 562 Q 898.5 576 1081 590 Q 1119.5 606 1158 622 Q 1208 609 1256 582 Q 1325.5 459.5 1395 337 Q 1404 322 1421 314 Q 1497 333 1609 611 Q 1620.5 608.5 1632 606 Q 1652.5 579 1673 552 Q 1700.5 533 1728 514 Q 1734 517 1740 520 Q 1830 455 1920 390 V 902 H 0" fill="#7E2773"/>
</svg>