<svg width="750" height="500" viewBox="0 0 750 500" fill="none" xmlns="http://www.w3.org/2000/svg">
<rect x="319" y="362" width="78" height="17" rx="5" fill="white"/>
<path d="M336.512 373L335.144 371C335.501 370.867 335.789 370.659 336.008 370.376C336.232 370.088 336.344 369.717 336.344 369.264V369.248C336.344 368.667 336.157 368.213 335.784 367.888C335.416 367.563 334.899 367.4 334.232 367.4H331.672V373H332.904V371.208H333.872L335.072 373H336.512ZM335.096 369.328C335.096 369.568 335.013 369.76 334.848 369.904C334.688 370.048 334.456 370.12 334.152 370.12H332.904V368.512H334.128C334.432 368.512 334.669 368.579 334.84 368.712C335.011 368.845 335.096 369.045 335.096 369.312V369.328ZM341.325 370.976V370.96C341.325 370.656 341.283 370.365 341.197 370.088C341.117 369.805 340.989 369.557 340.813 369.344C340.643 369.125 340.427 368.952 340.165 368.824C339.904 368.696 339.595 368.632 339.237 368.632C338.923 368.632 338.635 368.691 338.373 368.808C338.117 368.925 337.896 369.085 337.709 369.288C337.523 369.491 337.376 369.728 337.269 370C337.168 370.272 337.117 370.56 337.117 370.864V370.88C337.117 371.211 337.173 371.512 337.285 371.784C337.397 372.051 337.552 372.283 337.749 372.48C337.952 372.677 338.189 372.829 338.461 372.936C338.739 373.043 339.037 373.096 339.357 373.096C339.747 373.096 340.085 373.027 340.373 372.888C340.661 372.744 340.907 372.547 341.109 372.296L340.413 371.68C340.243 371.835 340.077 371.947 339.917 372.016C339.757 372.085 339.576 372.12 339.373 372.12C339.101 372.12 338.872 372.051 338.685 371.912C338.504 371.768 338.384 371.557 338.325 371.28H341.309C341.315 371.221 341.317 371.171 341.317 371.128C341.323 371.085 341.325 371.035 341.325 370.976ZM340.141 370.52H338.309C338.357 370.243 338.459 370.021 338.613 369.856C338.773 369.691 338.981 369.608 339.237 369.608C339.493 369.608 339.699 369.693 339.853 369.864C340.008 370.029 340.104 370.248 340.141 370.52ZM346.544 372.032V368.712H345.328V369.272C345.162 369.091 344.973 368.939 344.76 368.816C344.546 368.693 344.274 368.632 343.944 368.632C343.698 368.632 343.461 368.677 343.232 368.768C343.002 368.853 342.8 368.981 342.624 369.152C342.448 369.323 342.306 369.533 342.2 369.784C342.093 370.029 342.04 370.312 342.04 370.632V370.648C342.04 370.968 342.09 371.253 342.192 371.504C342.298 371.749 342.44 371.957 342.616 372.128C342.792 372.299 342.994 372.429 343.224 372.52C343.453 372.605 343.693 372.648 343.944 372.648C344.269 372.648 344.538 372.587 344.752 372.464C344.965 372.341 345.162 372.171 345.344 371.952V372.16C345.344 372.544 345.242 372.835 345.04 373.032C344.842 373.229 344.536 373.328 344.12 373.328C343.832 373.328 343.573 373.293 343.344 373.224C343.12 373.155 342.896 373.059 342.672 372.936L342.256 373.848C342.528 373.992 342.824 374.101 343.144 374.176C343.464 374.256 343.8 374.296 344.152 374.296C344.552 374.296 344.901 374.253 345.2 374.168C345.498 374.083 345.746 373.949 345.944 373.768C346.146 373.587 346.296 373.352 346.391 373.064C346.493 372.781 346.544 372.437 346.544 372.032ZM345.344 370.648C345.344 370.792 345.317 370.925 345.264 371.048C345.21 371.171 345.136 371.277 345.04 371.368C344.949 371.453 344.84 371.52 344.712 371.568C344.584 371.616 344.445 371.64 344.296 371.64C343.997 371.64 343.749 371.549 343.552 371.368C343.354 371.187 343.256 370.947 343.256 370.648V370.632C343.256 370.488 343.282 370.355 343.336 370.232C343.389 370.109 343.461 370.005 343.552 369.92C343.648 369.829 343.757 369.76 343.88 369.712C344.008 369.664 344.146 369.64 344.296 369.64C344.445 369.64 344.584 369.664 344.712 369.712C344.84 369.76 344.949 369.829 345.04 369.92C345.136 370.005 345.21 370.109 345.264 370.232C345.317 370.355 345.344 370.488 345.344 370.632V370.648ZM348.934 368.24V367.16H347.654V368.24H348.934ZM348.902 373V368.712H347.686V373H348.902ZM353.188 371.696V371.68C353.188 371.483 353.148 371.315 353.068 371.176C352.988 371.037 352.887 370.92 352.764 370.824C352.641 370.728 352.503 370.648 352.348 370.584C352.193 370.515 352.041 370.456 351.892 370.408C351.775 370.371 351.663 370.333 351.556 370.296C351.455 370.259 351.364 370.221 351.284 370.184C351.204 370.141 351.14 370.099 351.092 370.056C351.044 370.008 351.02 369.955 351.02 369.896V369.88C351.02 369.795 351.057 369.725 351.132 369.672C351.207 369.613 351.319 369.584 351.468 369.584C351.623 369.584 351.801 369.621 352.004 369.696C352.207 369.765 352.415 369.861 352.628 369.984L353.092 369.144C352.857 368.989 352.599 368.869 352.316 368.784C352.039 368.693 351.764 368.648 351.492 368.648C351.273 368.648 351.068 368.677 350.876 368.736C350.689 368.795 350.524 368.883 350.38 369C350.241 369.117 350.129 369.261 350.044 369.432C349.964 369.597 349.924 369.789 349.924 370.008V370.024C349.924 370.232 349.961 370.408 350.036 370.552C350.116 370.696 350.217 370.819 350.34 370.92C350.463 371.016 350.599 371.096 350.748 371.16C350.903 371.219 351.055 371.269 351.204 371.312C351.321 371.349 351.433 371.384 351.54 371.416C351.647 371.448 351.74 371.483 351.82 371.52C351.905 371.552 351.972 371.592 352.02 371.64C352.068 371.688 352.092 371.744 352.092 371.808V371.824C352.092 371.92 352.049 371.997 351.964 372.056C351.884 372.115 351.756 372.144 351.58 372.144C351.377 372.144 351.159 372.101 350.924 372.016C350.695 371.931 350.463 371.803 350.228 371.632L349.708 372.432C349.996 372.656 350.297 372.821 350.612 372.928C350.932 373.029 351.244 373.08 351.548 373.08C351.777 373.08 351.991 373.053 352.188 373C352.391 372.941 352.567 372.856 352.716 372.744C352.865 372.632 352.98 372.491 353.06 372.32C353.145 372.144 353.188 371.936 353.188 371.696ZM356.468 372.824V371.848C356.281 371.949 356.081 372 355.868 372C355.606 372 355.476 371.861 355.476 371.584V369.752H356.484V368.712H355.476V367.616H354.26V368.712H353.748V369.752H354.26V371.784C354.26 372.035 354.289 372.243 354.348 372.408C354.412 372.568 354.497 372.699 354.604 372.8C354.716 372.901 354.846 372.971 354.996 373.008C355.15 373.051 355.321 373.072 355.508 373.072C355.71 373.072 355.889 373.048 356.044 373C356.198 372.957 356.34 372.899 356.468 372.824ZM361.38 370.976V370.96C361.38 370.656 361.337 370.365 361.252 370.088C361.172 369.805 361.044 369.557 360.868 369.344C360.697 369.125 360.481 368.952 360.22 368.824C359.959 368.696 359.649 368.632 359.292 368.632C358.977 368.632 358.689 368.691 358.428 368.808C358.172 368.925 357.951 369.085 357.764 369.288C357.577 369.491 357.431 369.728 357.324 370C357.223 370.272 357.172 370.56 357.172 370.864V370.88C357.172 371.211 357.228 371.512 357.34 371.784C357.452 372.051 357.607 372.283 357.804 372.48C358.007 372.677 358.244 372.829 358.516 372.936C358.793 373.043 359.092 373.096 359.412 373.096C359.801 373.096 360.14 373.027 360.428 372.888C360.716 372.744 360.961 372.547 361.164 372.296L360.468 371.68C360.297 371.835 360.132 371.947 359.972 372.016C359.812 372.085 359.631 372.12 359.428 372.12C359.156 372.12 358.927 372.051 358.74 371.912C358.559 371.768 358.439 371.557 358.38 371.28H361.364C361.369 371.221 361.372 371.171 361.372 371.128C361.377 371.085 361.38 371.035 361.38 370.976ZM360.196 370.52H358.364C358.412 370.243 358.513 370.021 358.668 369.856C358.828 369.691 359.036 369.608 359.292 369.608C359.548 369.608 359.753 369.693 359.908 369.864C360.063 370.029 360.159 370.248 360.196 370.52ZM364.87 369.904V368.632C364.508 368.616 364.22 368.696 364.006 368.872C363.793 369.048 363.625 369.283 363.502 369.576V368.712H362.286V373H363.502V371.416C363.502 370.899 363.617 370.517 363.846 370.272C364.081 370.027 364.401 369.904 364.806 369.904H364.87ZM371.956 373V370.224C371.956 369.728 371.828 369.339 371.572 369.056C371.322 368.773 370.964 368.632 370.5 368.632C370.346 368.632 370.207 368.651 370.084 368.688C369.962 368.725 369.85 368.776 369.748 368.84C369.647 368.904 369.554 368.979 369.468 369.064C369.388 369.144 369.314 369.229 369.244 369.32V368.712H368.028V373H369.244V370.608C369.244 370.32 369.311 370.104 369.444 369.96C369.583 369.811 369.77 369.736 370.004 369.736C370.239 369.736 370.42 369.811 370.548 369.96C370.676 370.104 370.74 370.32 370.74 370.608V373H371.956ZM377.445 370.864V370.848C377.445 370.539 377.386 370.251 377.269 369.984C377.151 369.712 376.989 369.477 376.781 369.28C376.578 369.077 376.335 368.92 376.053 368.808C375.77 368.691 375.463 368.632 375.133 368.632C374.797 368.632 374.487 368.691 374.205 368.808C373.922 368.925 373.677 369.085 373.469 369.288C373.261 369.491 373.098 369.728 372.981 370C372.863 370.267 372.805 370.555 372.805 370.864V370.88C372.805 371.189 372.863 371.48 372.981 371.752C373.098 372.019 373.258 372.253 373.461 372.456C373.669 372.653 373.914 372.811 374.197 372.928C374.479 373.04 374.786 373.096 375.117 373.096C375.453 373.096 375.762 373.037 376.045 372.92C376.327 372.803 376.573 372.643 376.781 372.44C376.989 372.237 377.151 372.003 377.269 371.736C377.386 371.464 377.445 371.173 377.445 370.864ZM376.245 370.88C376.245 371.04 376.218 371.192 376.165 371.336C376.117 371.475 376.045 371.597 375.949 371.704C375.853 371.811 375.735 371.896 375.597 371.96C375.463 372.019 375.309 372.048 375.133 372.048C374.962 372.048 374.807 372.016 374.669 371.952C374.535 371.888 374.418 371.803 374.317 371.696C374.215 371.584 374.138 371.459 374.085 371.32C374.031 371.176 374.005 371.024 374.005 370.864V370.848C374.005 370.688 374.029 370.539 374.077 370.4C374.13 370.256 374.205 370.131 374.301 370.024C374.397 369.917 374.511 369.835 374.645 369.776C374.783 369.712 374.941 369.68 375.117 369.68C375.282 369.68 375.434 369.712 375.573 369.776C375.711 369.84 375.831 369.928 375.933 370.04C376.034 370.147 376.111 370.272 376.165 370.416C376.218 370.555 376.245 370.704 376.245 370.864V370.88ZM384.477 368.712H383.269L382.565 371.32L381.749 368.696H380.701L379.893 371.312L379.205 368.712H377.973L379.293 373.032H380.381L381.221 370.4L382.045 373.032H383.141L384.477 368.712Z" fill="#0B031E"/>
</svg>
