<svg xmlns="http://www.w3.org/2000/svg" viewBox="0 315 1920 645">
  <path d="M 0 960 V 488 Q 265 365 328 315 Q 363 301 478 405 Q 505 428 556 435 Q 588 440 607 453 Q 626 433 659 435 Q 669 433 680 425 Q 741 417 823 382 Q 861 344 900 324 Q 930 357 968 372 Q 1005 378 1036 399 Q 1063 395 1071 385 Q 1090 385 1138 417 Q 1160 431 1186 433 Q 1221 439 1248 452 Q 1275 460 1303 464 Q 1320 454 1338 439 Q 1353 432 1364 421 Q 1387 443 1467 456 Q 1486 440 1512 436 Q 1542 450 1586 452 Q 1621 443 1647 430 Q 1661 426 1674 427 Q 1699 434 1726 446 Q 1768 458 1812 468 Q 1911 481 1920 489 H 1920 V 960 H 0" fill="#591C81"/>
</svg>