<svg width="244" height="81" viewBox="0 0 244 81" fill="none" xmlns="http://www.w3.org/2000/svg">
<path d="M45.616 56V49.424H27.376V42.368H43.216V35.792H27.376V28.976H45.376V22.4H20.032V56H45.616ZM87.8042 22.4H79.8362L71.0522 46.064L62.2682 22.4H54.1082L67.6922 56.24H74.2203L87.8042 22.4ZM123.372 56V49.424H105.132V42.368H120.972V35.792H105.132V28.976H123.132V22.4H97.7882V56H123.372ZM164.601 56V22.4H157.305V43.088L141.561 22.4H134.745V56H142.041V34.64L158.313 56H164.601ZM202.906 29.216V22.4H175.066V29.216H185.29V56H192.682V29.216H202.906ZM237.679 46.064V45.968C237.679 44.496 237.439 43.232 236.959 42.176C236.511 41.12 235.823 40.208 234.895 39.44C233.999 38.64 232.879 37.968 231.535 37.424C230.223 36.848 228.719 36.336 227.023 35.888C225.583 35.504 224.383 35.168 223.423 34.88C222.495 34.592 221.759 34.288 221.215 33.968C220.671 33.648 220.287 33.296 220.063 32.912C219.871 32.496 219.775 32.016 219.775 31.472V31.376C219.775 30.544 220.127 29.856 220.831 29.312C221.567 28.736 222.655 28.448 224.095 28.448C225.535 28.448 226.975 28.752 228.415 29.36C229.855 29.936 231.327 30.736 232.831 31.76L236.671 26.192C234.943 24.816 233.039 23.76 230.959 23.024C228.911 22.288 226.655 21.92 224.191 21.92C222.463 21.92 220.879 22.16 219.439 22.64C217.999 23.12 216.751 23.808 215.695 24.704C214.671 25.6 213.871 26.672 213.295 27.92C212.719 29.136 212.431 30.512 212.431 32.048V32.144C212.431 33.808 212.687 35.2 213.199 36.32C213.743 37.44 214.495 38.384 215.455 39.152C216.415 39.888 217.583 40.512 218.959 41.024C220.335 41.536 221.871 42 223.567 42.416C224.975 42.768 226.111 43.104 226.975 43.424C227.871 43.744 228.559 44.064 229.039 44.384C229.551 44.704 229.887 45.056 230.047 45.44C230.239 45.792 230.335 46.208 230.335 46.688V46.784C230.335 47.776 229.903 48.56 229.039 49.136C228.207 49.68 227.023 49.952 225.487 49.952C223.567 49.952 221.791 49.584 220.159 48.848C218.559 48.112 216.991 47.12 215.455 45.872L211.087 51.104C213.103 52.928 215.343 54.288 217.807 55.184C220.271 56.048 222.783 56.48 225.343 56.48C227.167 56.48 228.831 56.256 230.335 55.808C231.839 55.328 233.135 54.656 234.223 53.792C235.311 52.896 236.159 51.808 236.767 50.528C237.375 49.216 237.679 47.728 237.679 46.064Z" fill="#30135F"/>
<path d="M39.616 55V48.424H21.376V41.368H37.216V34.792H21.376V27.976H39.376V21.4H14.032V55H39.616ZM81.8042 21.4H73.8362L65.0522 45.064L56.2682 21.4H48.1082L61.6922 55.24H68.2203L81.8042 21.4ZM117.372 55V48.424H99.1322V41.368H114.972V34.792H99.1322V27.976H117.132V21.4H91.7882V55H117.372ZM158.601 55V21.4H151.305V42.088L135.561 21.4H128.745V55H136.041V33.64L152.313 55H158.601ZM196.906 28.216V21.4H169.066V28.216H179.29V55H186.682V28.216H196.906ZM231.679 45.064V44.968C231.679 43.496 231.439 42.232 230.959 41.176C230.511 40.12 229.823 39.208 228.895 38.44C227.999 37.64 226.879 36.968 225.535 36.424C224.223 35.848 222.719 35.336 221.023 34.888C219.583 34.504 218.383 34.168 217.423 33.88C216.495 33.592 215.759 33.288 215.215 32.968C214.671 32.648 214.287 32.296 214.063 31.912C213.871 31.496 213.775 31.016 213.775 30.472V30.376C213.775 29.544 214.127 28.856 214.831 28.312C215.567 27.736 216.655 27.448 218.095 27.448C219.535 27.448 220.975 27.752 222.415 28.36C223.855 28.936 225.327 29.736 226.831 30.76L230.671 25.192C228.943 23.816 227.039 22.76 224.959 22.024C222.911 21.288 220.655 20.92 218.191 20.92C216.463 20.92 214.879 21.16 213.439 21.64C211.999 22.12 210.751 22.808 209.695 23.704C208.671 24.6 207.871 25.672 207.295 26.92C206.719 28.136 206.431 29.512 206.431 31.048V31.144C206.431 32.808 206.687 34.2 207.199 35.32C207.743 36.44 208.495 37.384 209.455 38.152C210.415 38.888 211.583 39.512 212.959 40.024C214.335 40.536 215.871 41 217.567 41.416C218.975 41.768 220.111 42.104 220.975 42.424C221.871 42.744 222.559 43.064 223.039 43.384C223.551 43.704 223.887 44.056 224.047 44.44C224.239 44.792 224.335 45.208 224.335 45.688V45.784C224.335 46.776 223.903 47.56 223.039 48.136C222.207 48.68 221.023 48.952 219.487 48.952C217.567 48.952 215.791 48.584 214.159 47.848C212.559 47.112 210.991 46.12 209.455 44.872L205.087 50.104C207.103 51.928 209.343 53.288 211.807 54.184C214.271 55.048 216.783 55.48 219.343 55.48C221.167 55.48 222.831 55.256 224.335 54.808C225.839 54.328 227.135 53.656 228.223 52.792C229.311 51.896 230.159 50.808 230.767 49.528C231.375 48.216 231.679 46.728 231.679 45.064Z" fill="#2F3C84"/>
<path d="M35.616 55V48.424H17.376V41.368H33.216V34.792H17.376V27.976H35.376V21.4H10.032V55H35.616ZM77.8042 21.4H69.8362L61.0522 45.064L52.2682 21.4H44.1082L57.6922 55.24H64.2203L77.8042 21.4ZM113.372 55V48.424H95.1322V41.368H110.972V34.792H95.1322V27.976H113.132V21.4H87.7882V55H113.372ZM154.601 55V21.4H147.305V42.088L131.561 21.4H124.745V55H132.041V33.64L148.313 55H154.601ZM192.906 28.216V21.4H165.066V28.216H175.29V55H182.682V28.216H192.906ZM227.679 45.064V44.968C227.679 43.496 227.439 42.232 226.959 41.176C226.511 40.12 225.823 39.208 224.895 38.44C223.999 37.64 222.879 36.968 221.535 36.424C220.223 35.848 218.719 35.336 217.023 34.888C215.583 34.504 214.383 34.168 213.423 33.88C212.495 33.592 211.759 33.288 211.215 32.968C210.671 32.648 210.287 32.296 210.063 31.912C209.871 31.496 209.775 31.016 209.775 30.472V30.376C209.775 29.544 210.127 28.856 210.831 28.312C211.567 27.736 212.655 27.448 214.095 27.448C215.535 27.448 216.975 27.752 218.415 28.36C219.855 28.936 221.327 29.736 222.831 30.76L226.671 25.192C224.943 23.816 223.039 22.76 220.959 22.024C218.911 21.288 216.655 20.92 214.191 20.92C212.463 20.92 210.879 21.16 209.439 21.64C207.999 22.12 206.751 22.808 205.695 23.704C204.671 24.6 203.871 25.672 203.295 26.92C202.719 28.136 202.431 29.512 202.431 31.048V31.144C202.431 32.808 202.687 34.2 203.199 35.32C203.743 36.44 204.495 37.384 205.455 38.152C206.415 38.888 207.583 39.512 208.959 40.024C210.335 40.536 211.871 41 213.567 41.416C214.975 41.768 216.111 42.104 216.975 42.424C217.871 42.744 218.559 43.064 219.039 43.384C219.551 43.704 219.887 44.056 220.047 44.44C220.239 44.792 220.335 45.208 220.335 45.688V45.784C220.335 46.776 219.903 47.56 219.039 48.136C218.207 48.68 217.023 48.952 215.487 48.952C213.567 48.952 211.791 48.584 210.159 47.848C208.559 47.112 206.991 46.12 205.455 44.872L201.087 50.104C203.103 51.928 205.343 53.288 207.807 54.184C210.271 55.048 212.783 55.48 215.343 55.48C217.167 55.48 218.831 55.256 220.335 54.808C221.839 54.328 223.135 53.656 224.223 52.792C225.311 51.896 226.159 50.808 226.767 49.528C227.375 48.216 227.679 46.728 227.679 45.064Z" fill="#4A7FC2"/>
<path d="M31.616 54V47.424H13.376V40.368H29.216V33.792H13.376V26.976H31.376V20.4H6.032V54H31.616ZM73.8042 20.4H65.8362L57.0522 44.064L48.2682 20.4H40.1082L53.6922 54.24H60.2203L73.8042 20.4ZM109.372 54V47.424H91.1322V40.368H106.972V33.792H91.1322V26.976H109.132V20.4H83.7882V54H109.372ZM150.601 54V20.4H143.305V41.088L127.561 20.4H120.745V54H128.041V32.64L144.313 54H150.601ZM188.906 27.216V20.4H161.066V27.216H171.29V54H178.682V27.216H188.906ZM223.679 44.064V43.968C223.679 42.496 223.439 41.232 222.959 40.176C222.511 39.12 221.823 38.208 220.895 37.44C219.999 36.64 218.879 35.968 217.535 35.424C216.223 34.848 214.719 34.336 213.023 33.888C211.583 33.504 210.383 33.168 209.423 32.88C208.495 32.592 207.759 32.288 207.215 31.968C206.671 31.648 206.287 31.296 206.063 30.912C205.871 30.496 205.775 30.016 205.775 29.472V29.376C205.775 28.544 206.127 27.856 206.831 27.312C207.567 26.736 208.655 26.448 210.095 26.448C211.535 26.448 212.975 26.752 214.415 27.36C215.855 27.936 217.327 28.736 218.831 29.76L222.671 24.192C220.943 22.816 219.039 21.76 216.959 21.024C214.911 20.288 212.655 19.92 210.191 19.92C208.463 19.92 206.879 20.16 205.439 20.64C203.999 21.12 202.751 21.808 201.695 22.704C200.671 23.6 199.871 24.672 199.295 25.92C198.719 27.136 198.431 28.512 198.431 30.048V30.144C198.431 31.808 198.687 33.2 199.199 34.32C199.743 35.44 200.495 36.384 201.455 37.152C202.415 37.888 203.583 38.512 204.959 39.024C206.335 39.536 207.871 40 209.567 40.416C210.975 40.768 212.111 41.104 212.975 41.424C213.871 41.744 214.559 42.064 215.039 42.384C215.551 42.704 215.887 43.056 216.047 43.44C216.239 43.792 216.335 44.208 216.335 44.688V44.784C216.335 45.776 215.903 46.56 215.039 47.136C214.207 47.68 213.023 47.952 211.487 47.952C209.567 47.952 207.791 47.584 206.159 46.848C204.559 46.112 202.991 45.12 201.455 43.872L197.087 49.104C199.103 50.928 201.343 52.288 203.807 53.184C206.271 54.048 208.783 54.48 211.343 54.48C213.167 54.48 214.831 54.256 216.335 53.808C217.839 53.328 219.135 52.656 220.223 51.792C221.311 50.896 222.159 49.808 222.767 48.528C223.375 47.216 223.679 45.728 223.679 44.064Z" fill="white"/>
</svg>
